<?xml version="1.0" standalone="no"?><!-- Generator: Gravit.io --><svg xmlns="http://www.w3.org/2000/svg" xmlns:xlink="http://www.w3.org/1999/xlink" style="isolation:isolate" viewBox="0 0 98 90" width="98" height="90"><defs><clipPath id="_clipPath_W1PM5JFIVn5HNZKavJulxVuY1g9RDb8N"><rect width="98" height="90"/></clipPath></defs><g clip-path="url(#_clipPath_W1PM5JFIVn5HNZKavJulxVuY1g9RDb8N)"><path d=" M 7.74 85.01 L 89.58 85.01 L 89.58 45.93 L 7.74 45.93 L 7.74 85.01 L 7.74 85.01 Z  M 55.75 39.95 L 94.1 39.95 L 94.24 39.96 L 94.37 39.96 L 94.5 39.98 L 94.62 40 L 94.75 40.02 L 94.88 40.05 L 95 40.08 L 95.12 40.12 L 95.24 40.16 L 95.36 40.21 L 95.58 40.31 L 95.69 40.37 L 95.8 40.44 L 95.9 40.5 L 96 40.57 L 96.2 40.73 L 96.29 40.81 L 96.46 40.98 L 96.55 41.08 L 96.62 41.17 L 96.7 41.27 L 96.77 41.37 L 96.84 41.48 L 96.9 41.58 L 97.02 41.8 L 97.07 41.92 L 97.11 42.04 L 97.16 42.15 L 97.19 42.27 L 97.23 42.4 L 97.26 42.52 L 97.28 42.65 L 97.3 42.78 L 97.32 43.04 L 97.32 86.96 L 97.3 87.22 L 97.28 87.35 L 97.26 87.48 L 97.23 87.6 L 97.19 87.73 L 97.16 87.85 L 97.11 87.97 L 97.07 88.08 L 97.02 88.2 L 96.84 88.53 L 96.7 88.73 L 96.62 88.83 L 96.55 88.92 L 96.46 89.02 L 96.38 89.11 L 96.2 89.27 L 96 89.43 L 95.8 89.57 L 95.58 89.69 L 95.47 89.74 L 95.36 89.8 L 95.24 89.84 L 95.12 89.88 L 95 89.92 L 94.88 89.95 L 94.75 89.98 L 94.62 90.01 L 94.5 90.02 L 94.37 90.04 L 94.24 90.05 L 3.09 90.05 L 2.96 90.04 L 2.83 90.02 L 2.7 90.01 L 2.57 89.98 L 2.45 89.95 L 2.32 89.92 L 2.08 89.84 L 1.97 89.8 L 1.85 89.74 L 1.74 89.69 L 1.63 89.63 L 1.52 89.57 L 1.42 89.5 L 1.32 89.43 L 1.22 89.35 L 1.13 89.27 L 1.03 89.19 L 0.94 89.11 L 0.86 89.02 L 0.78 88.92 L 0.7 88.83 L 0.62 88.73 L 0.48 88.53 L 0.42 88.42 L 0.36 88.31 L 0.31 88.2 L 0.25 88.08 L 0.21 87.97 L 0.17 87.85 L 0.13 87.73 L 0.1 87.6 L 0.07 87.48 L 0.04 87.35 L 0.03 87.22 L 0.01 87.09 L 0 86.96 L 0 43.04 L 0.01 42.91 L 0.03 42.78 L 0.04 42.65 L 0.07 42.52 L 0.1 42.4 L 0.13 42.27 L 0.17 42.15 L 0.21 42.04 L 0.25 41.92 L 0.31 41.8 L 0.36 41.69 L 0.42 41.58 L 0.48 41.48 L 0.55 41.37 L 0.62 41.27 L 0.7 41.17 L 0.78 41.08 L 0.86 40.98 L 1.03 40.81 L 1.13 40.73 L 1.22 40.65 L 1.32 40.57 L 1.42 40.5 L 1.52 40.44 L 1.63 40.37 L 1.74 40.31 L 1.85 40.26 L 1.97 40.21 L 2.08 40.16 L 2.32 40.08 L 2.45 40.05 L 2.57 40.02 L 2.96 39.96 L 3.09 39.96 L 3.22 39.95 L 38.85 39.95 L 12.51 9.07 L 15.41 6.6 L 43.85 39.95 L 50.52 39.95 L 86.9 4 L 89.48 6.62 L 55.75 39.95 L 55.75 39.95 Z  M 16.252 53.83 L 16.252 79.423 L 12.877 79.423 L 12.877 53.83 L 16.252 53.83 L 16.252 53.83 Z  M 25.797 56.607 L 25.797 66.644 L 31.861 66.644 L 31.861 66.644 Q 34.568 66.644 36.01 65.37 L 36.01 65.37 L 36.01 65.37 Q 37.451 64.095 37.451 61.687 L 37.451 61.687 L 37.451 61.687 Q 37.451 59.402 36.01 58.031 L 36.01 58.031 L 36.01 58.031 Q 34.568 56.66 32.055 56.607 L 32.055 56.607 L 25.797 56.607 L 25.797 56.607 Z  M 62.816 53.83 L 62.816 56.607 L 54.59 56.607 L 54.59 79.423 L 51.232 79.423 L 51.232 56.607 L 43.023 56.607 L 43.023 53.83 L 62.816 53.83 L 62.816 53.83 Z  M 68.09 53.83 L 75.367 74.941 L 82.68 53.83 L 86.371 53.83 L 76.879 79.423 L 73.89 79.423 L 64.416 53.83 L 68.09 53.83 L 68.09 53.83 Z  M 31.826 69.404 L 25.797 69.404 L 25.797 79.423 L 22.422 79.423 L 22.422 53.83 L 31.861 53.83 L 31.861 53.83 Q 36.062 53.83 38.444 55.974 L 38.444 55.974 L 38.444 55.974 Q 40.826 58.119 40.826 61.652 L 40.826 61.652 L 40.826 61.652 Q 40.826 65.379 38.497 67.391 L 38.497 67.391 L 38.497 67.391 Q 36.168 69.404 31.826 69.404 L 31.826 69.404 L 31.826 69.404 Z " fill-rule="evenodd" fill="rgb(255,255,255)"/></g></svg>